<svg width="760" height="265" viewBox="0 0 760 265" fill="none" xmlns="http://www.w3.org/2000/svg">
<path d="M22.6035 77.7881V187.211L116.5 241.423L210.5 187.151V77.8477L116.5 23.5762L22.6035 77.7881ZM232.5 196.604L232.25 196.749L116.75 263.433L116.5 263.577L116.25 263.433L0.75 196.749L0.5 196.604V68.3955L0.75 68.251L116.25 1.56738L116.5 1.42285L116.75 1.56738L229.25 66.5186L232.25 68.251L232.5 68.3955V196.604Z" fill="#3D5CF9" stroke="#3D5CF9"/>
<path d="M56.5001 76.6406L56.5284 94.624V94.625L56.5001 169.359V188.225L55.7501 187.792L37.8077 177.433L37.5577 177.289V86.7109L37.8077 86.5674L55.7501 76.208L56.4982 75.7754L56.5001 76.6406ZM158.5 178.885L175.471 169.086L175.5 120V94.9297L158.5 85.1143V178.885ZM92.5001 74.1445V122.5H139.5V74.1445L116 60.5762L92.5001 74.1445ZM194.443 177.289L194.193 177.433L176.25 187.792L171.75 190.39L161.25 196.452L158.25 198.185L153.75 200.782L149.25 203.381L140.25 208.576L139.5 209.01V141.5H92.5001V209.01L91.7501 208.576L78.2501 200.782L73.7501 198.185L73.5001 198.04V65.96L73.7501 65.8154L78.2501 63.2178L115.75 41.5674L116 41.4229L116.25 41.5674L149.25 60.6191L153.75 63.2178L158.25 65.8154L161.25 67.5479L171.75 73.6104L176.25 76.208L194.193 86.5674L194.443 86.7109V177.289Z" fill="#3D5CF9" stroke="#3D5CF9"/>
<path d="M264.3 139V69H280.5V139H264.3ZM287.912 139L319.113 69H335.113L366.413 139H349.413L323.813 77.2H330.213L304.513 139H287.912ZM303.512 124L307.813 111.7H343.813L348.213 124H303.512ZM373.675 139V69H405.475C413.075 69 419.775 70.4667 425.575 73.4C431.375 76.2667 435.908 80.3 439.175 85.5C442.442 90.7 444.075 96.8667 444.075 104C444.075 111.067 442.442 117.233 439.175 122.5C435.908 127.7 431.375 131.767 425.575 134.7C419.775 137.567 413.075 139 405.475 139H373.675ZM389.875 125.7H404.675C409.342 125.7 413.375 124.833 416.775 123.1C420.242 121.3 422.908 118.767 424.775 115.5C426.708 112.233 427.675 108.4 427.675 104C427.675 99.5333 426.708 95.7 424.775 92.5C422.908 89.2333 420.242 86.7333 416.775 85C413.375 83.2 409.342 82.3 404.675 82.3H389.875V125.7ZM499.113 139V82.2H476.713V69H537.713V82.2H515.313V139H499.113ZM561.329 97.2H595.029V109.8H561.329V97.2ZM562.529 126H600.629V139H546.429V69H599.329V82H562.529V126ZM647.019 140.2C641.619 140.2 636.585 139.333 631.919 137.6C627.319 135.8 623.319 133.267 619.919 130C616.519 126.733 613.852 122.9 611.919 118.5C610.052 114.1 609.119 109.267 609.119 104C609.119 98.7333 610.052 93.9 611.919 89.5C613.852 85.1 616.519 81.2667 619.919 78C623.385 74.7333 627.419 72.2333 632.019 70.5C636.619 68.7 641.652 67.8 647.119 67.8C653.185 67.8 658.652 68.8667 663.519 71C668.452 73.0667 672.585 76.1333 675.919 80.2L665.519 89.8C663.119 87.0667 660.452 85.0333 657.519 83.7C654.585 82.3 651.385 81.6 647.919 81.6C644.652 81.6 641.652 82.1333 638.919 83.2C636.185 84.2667 633.819 85.8 631.819 87.8C629.819 89.8 628.252 92.1667 627.119 94.9C626.052 97.6333 625.519 100.667 625.519 104C625.519 107.333 626.052 110.367 627.119 113.1C628.252 115.833 629.819 118.2 631.819 120.2C633.819 122.2 636.185 123.733 638.919 124.8C641.652 125.867 644.652 126.4 647.919 126.4C651.385 126.4 654.585 125.733 657.519 124.4C660.452 123 663.119 120.9 665.519 118.1L675.919 127.7C672.585 131.767 668.452 134.867 663.519 137C658.652 139.133 653.152 140.2 647.019 140.2ZM734.859 69H751.059V139H734.859V69ZM703.059 139H686.859V69H703.059V139ZM736.059 110.3H701.859V96.6H736.059V110.3Z" fill="#2B2B2B"/>
<path d="M259.99 186V161.5H262.58V186H259.99ZM279.407 167.45C280.9 167.45 282.207 167.742 283.327 168.325C284.47 168.885 285.357 169.748 285.987 170.915C286.64 172.082 286.967 173.552 286.967 175.325V186H284.482V175.57C284.482 173.633 283.992 172.175 283.012 171.195C282.055 170.192 280.702 169.69 278.952 169.69C277.645 169.69 276.502 169.958 275.522 170.495C274.565 171.008 273.818 171.767 273.282 172.77C272.768 173.75 272.512 174.94 272.512 176.34V186H270.027V167.625H272.407V172.665L272.022 171.72C272.605 170.39 273.538 169.352 274.822 168.605C276.105 167.835 277.633 167.45 279.407 167.45ZM303.059 167.45C304.552 167.45 305.859 167.742 306.979 168.325C308.122 168.885 309.009 169.748 309.639 170.915C310.292 172.082 310.619 173.552 310.619 175.325V186H308.134V175.57C308.134 173.633 307.644 172.175 306.664 171.195C305.707 170.192 304.354 169.69 302.604 169.69C301.297 169.69 300.154 169.958 299.174 170.495C298.217 171.008 297.471 171.767 296.934 172.77C296.421 173.75 296.164 174.94 296.164 176.34V186H293.679V167.625H296.059V172.665L295.674 171.72C296.257 170.39 297.191 169.352 298.474 168.605C299.757 167.835 301.286 167.45 303.059 167.45ZM324.821 186.175C323.048 186.175 321.45 185.778 320.026 184.985C318.626 184.168 317.518 183.06 316.701 181.66C315.885 180.237 315.476 178.615 315.476 176.795C315.476 174.952 315.885 173.33 316.701 171.93C317.518 170.53 318.626 169.433 320.026 168.64C321.426 167.847 323.025 167.45 324.821 167.45C326.641 167.45 328.251 167.847 329.651 168.64C331.075 169.433 332.183 170.53 332.976 171.93C333.793 173.33 334.201 174.952 334.201 176.795C334.201 178.615 333.793 180.237 332.976 181.66C332.183 183.06 331.075 184.168 329.651 184.985C328.228 185.778 326.618 186.175 324.821 186.175ZM324.821 183.97C326.151 183.97 327.33 183.678 328.356 183.095C329.383 182.488 330.188 181.648 330.771 180.575C331.378 179.478 331.681 178.218 331.681 176.795C331.681 175.348 331.378 174.088 330.771 173.015C330.188 171.942 329.383 171.113 328.356 170.53C327.33 169.923 326.163 169.62 324.856 169.62C323.55 169.62 322.383 169.923 321.356 170.53C320.33 171.113 319.513 171.942 318.906 173.015C318.3 174.088 317.996 175.348 317.996 176.795C317.996 178.218 318.3 179.478 318.906 180.575C319.513 181.648 320.33 182.488 321.356 183.095C322.383 183.678 323.538 183.97 324.821 183.97ZM343.487 186L335.332 167.625H337.922L345.412 184.67H344.187L351.782 167.625H354.232L346.042 186H343.487ZM368.7 186V181.94L368.595 181.275V174.485C368.595 172.922 368.151 171.72 367.265 170.88C366.401 170.04 365.106 169.62 363.38 169.62C362.19 169.62 361.058 169.818 359.985 170.215C358.911 170.612 358.001 171.137 357.255 171.79L356.135 169.935C357.068 169.142 358.188 168.535 359.495 168.115C360.801 167.672 362.178 167.45 363.625 167.45C366.005 167.45 367.836 168.045 369.12 169.235C370.426 170.402 371.08 172.187 371.08 174.59V186H368.7ZM362.365 186.175C360.988 186.175 359.786 185.953 358.76 185.51C357.756 185.043 356.986 184.413 356.45 183.62C355.913 182.803 355.645 181.87 355.645 180.82C355.645 179.863 355.866 179 356.31 178.23C356.776 177.437 357.523 176.807 358.55 176.34C359.6 175.85 361 175.605 362.75 175.605H369.085V177.46H362.82C361.046 177.46 359.81 177.775 359.11 178.405C358.433 179.035 358.095 179.817 358.095 180.75C358.095 181.8 358.503 182.64 359.32 183.27C360.136 183.9 361.28 184.215 362.75 184.215C364.15 184.215 365.351 183.9 366.355 183.27C367.381 182.617 368.128 181.683 368.595 180.47L369.155 182.185C368.688 183.398 367.871 184.367 366.705 185.09C365.561 185.813 364.115 186.175 362.365 186.175ZM383.639 186.175C381.913 186.175 380.583 185.708 379.649 184.775C378.716 183.842 378.249 182.523 378.249 180.82V163.565H380.734V180.68C380.734 181.753 381.003 182.582 381.539 183.165C382.099 183.748 382.893 184.04 383.919 184.04C385.016 184.04 385.926 183.725 386.649 183.095L387.524 184.88C387.034 185.323 386.439 185.65 385.739 185.86C385.063 186.07 384.363 186.175 383.639 186.175ZM374.959 169.69V167.625H386.334V169.69H374.959ZM392.048 186V167.625H394.533V186H392.048ZM393.308 163.565C392.795 163.565 392.363 163.39 392.013 163.04C391.663 162.69 391.488 162.27 391.488 161.78C391.488 161.29 391.663 160.882 392.013 160.555C392.363 160.205 392.795 160.03 393.308 160.03C393.821 160.03 394.253 160.193 394.603 160.52C394.953 160.847 395.128 161.255 395.128 161.745C395.128 162.258 394.953 162.69 394.603 163.04C394.276 163.39 393.845 163.565 393.308 163.565ZM408.937 186.175C407.164 186.175 405.566 185.778 404.142 184.985C402.742 184.168 401.634 183.06 400.817 181.66C400.001 180.237 399.592 178.615 399.592 176.795C399.592 174.952 400.001 173.33 400.817 171.93C401.634 170.53 402.742 169.433 404.142 168.64C405.542 167.847 407.141 167.45 408.937 167.45C410.757 167.45 412.367 167.847 413.767 168.64C415.191 169.433 416.299 170.53 417.092 171.93C417.909 173.33 418.317 174.952 418.317 176.795C418.317 178.615 417.909 180.237 417.092 181.66C416.299 183.06 415.191 184.168 413.767 184.985C412.344 185.778 410.734 186.175 408.937 186.175ZM408.937 183.97C410.267 183.97 411.446 183.678 412.472 183.095C413.499 182.488 414.304 181.648 414.887 180.575C415.494 179.478 415.797 178.218 415.797 176.795C415.797 175.348 415.494 174.088 414.887 173.015C414.304 171.942 413.499 171.113 412.472 170.53C411.446 169.923 410.279 169.62 408.972 169.62C407.666 169.62 406.499 169.923 405.472 170.53C404.446 171.113 403.629 171.942 403.022 173.015C402.416 174.088 402.112 175.348 402.112 176.795C402.112 178.218 402.416 179.478 403.022 180.575C403.629 181.648 404.446 182.488 405.472 183.095C406.499 183.678 407.654 183.97 408.937 183.97ZM432.771 167.45C434.264 167.45 435.571 167.742 436.691 168.325C437.834 168.885 438.721 169.748 439.351 170.915C440.004 172.082 440.331 173.552 440.331 175.325V186H437.846V175.57C437.846 173.633 437.356 172.175 436.376 171.195C435.419 170.192 434.066 169.69 432.316 169.69C431.009 169.69 429.866 169.958 428.886 170.495C427.929 171.008 427.182 171.767 426.646 172.77C426.132 173.75 425.876 174.94 425.876 176.34V186H423.391V167.625H425.771V172.665L425.386 171.72C425.969 170.39 426.902 169.352 428.186 168.605C429.469 167.835 430.997 167.45 432.771 167.45ZM445.538 191.11L447.078 184.635L447.358 186.14C446.821 186.14 446.366 185.965 445.993 185.615C445.643 185.265 445.468 184.81 445.468 184.25C445.468 183.69 445.643 183.235 445.993 182.885C446.366 182.535 446.81 182.36 447.323 182.36C447.86 182.36 448.291 182.547 448.618 182.92C448.968 183.293 449.143 183.737 449.143 184.25C449.143 184.437 449.131 184.623 449.108 184.81C449.085 184.997 449.038 185.207 448.968 185.44C448.898 185.673 448.805 185.953 448.688 186.28L447.218 191.11H445.538ZM460.225 186L471.425 161.5H473.98L485.18 186H482.45L472.16 163.005H473.21L462.92 186H460.225ZM464.635 179.455L465.405 177.355H479.65L480.42 179.455H464.635ZM495.961 186.175C494.398 186.175 493.033 185.883 491.866 185.3C490.7 184.717 489.79 183.842 489.136 182.675C488.506 181.508 488.191 180.05 488.191 178.3V167.625H490.676V178.02C490.676 179.98 491.155 181.462 492.111 182.465C493.091 183.445 494.456 183.935 496.206 183.935C497.49 183.935 498.598 183.678 499.531 183.165C500.488 182.628 501.211 181.858 501.701 180.855C502.215 179.852 502.471 178.65 502.471 177.25V167.625H504.956V186H502.576V180.96L502.961 181.87C502.378 183.223 501.468 184.285 500.231 185.055C499.018 185.802 497.595 186.175 495.961 186.175ZM517.692 186.175C515.965 186.175 514.635 185.708 513.702 184.775C512.769 183.842 512.302 182.523 512.302 180.82V163.565H514.787V180.68C514.787 181.753 515.055 182.582 515.592 183.165C516.152 183.748 516.945 184.04 517.972 184.04C519.069 184.04 519.979 183.725 520.702 183.095L521.577 184.88C521.087 185.323 520.492 185.65 519.792 185.86C519.115 186.07 518.415 186.175 517.692 186.175ZM509.012 169.69V167.625H520.387V169.69H509.012ZM532.941 186.175C531.168 186.175 529.57 185.778 528.146 184.985C526.746 184.168 525.638 183.06 524.821 181.66C524.005 180.237 523.596 178.615 523.596 176.795C523.596 174.952 524.005 173.33 524.821 171.93C525.638 170.53 526.746 169.433 528.146 168.64C529.546 167.847 531.145 167.45 532.941 167.45C534.761 167.45 536.371 167.847 537.771 168.64C539.195 169.433 540.303 170.53 541.096 171.93C541.913 173.33 542.321 174.952 542.321 176.795C542.321 178.615 541.913 180.237 541.096 181.66C540.303 183.06 539.195 184.168 537.771 184.985C536.348 185.778 534.738 186.175 532.941 186.175ZM532.941 183.97C534.271 183.97 535.45 183.678 536.476 183.095C537.503 182.488 538.308 181.648 538.891 180.575C539.498 179.478 539.801 178.218 539.801 176.795C539.801 175.348 539.498 174.088 538.891 173.015C538.308 171.942 537.503 171.113 536.476 170.53C535.45 169.923 534.283 169.62 532.976 169.62C531.67 169.62 530.503 169.923 529.476 170.53C528.45 171.113 527.633 171.942 527.026 173.015C526.42 174.088 526.116 175.348 526.116 176.795C526.116 178.218 526.42 179.478 527.026 180.575C527.633 181.648 528.45 182.488 529.476 183.095C530.503 183.678 531.658 183.97 532.941 183.97ZM570.355 167.45C571.848 167.45 573.143 167.742 574.24 168.325C575.36 168.885 576.223 169.748 576.83 170.915C577.46 172.082 577.775 173.552 577.775 175.325V186H575.29V175.57C575.29 173.633 574.823 172.175 573.89 171.195C572.98 170.192 571.685 169.69 570.005 169.69C568.745 169.69 567.648 169.958 566.715 170.495C565.805 171.008 565.093 171.767 564.58 172.77C564.09 173.75 563.845 174.94 563.845 176.34V186H561.36V175.57C561.36 173.633 560.893 172.175 559.96 171.195C559.026 170.192 557.72 169.69 556.04 169.69C554.803 169.69 553.718 169.958 552.785 170.495C551.851 171.008 551.128 171.767 550.615 172.77C550.125 173.75 549.88 174.94 549.88 176.34V186H547.395V167.625H549.775V172.595L549.39 171.72C549.95 170.39 550.848 169.352 552.085 168.605C553.345 167.835 554.826 167.45 556.53 167.45C558.326 167.45 559.855 167.905 561.115 168.815C562.375 169.702 563.191 171.043 563.565 172.84L562.585 172.455C563.121 170.962 564.066 169.76 565.42 168.85C566.796 167.917 568.441 167.45 570.355 167.45ZM596.029 186V181.94L595.924 181.275V174.485C595.924 172.922 595.48 171.72 594.594 170.88C593.73 170.04 592.435 169.62 590.709 169.62C589.519 169.62 588.387 169.818 587.314 170.215C586.24 170.612 585.33 171.137 584.584 171.79L583.464 169.935C584.397 169.142 585.517 168.535 586.824 168.115C588.13 167.672 589.507 167.45 590.954 167.45C593.334 167.45 595.165 168.045 596.449 169.235C597.755 170.402 598.409 172.187 598.409 174.59V186H596.029ZM589.694 186.175C588.317 186.175 587.115 185.953 586.089 185.51C585.085 185.043 584.315 184.413 583.779 183.62C583.242 182.803 582.974 181.87 582.974 180.82C582.974 179.863 583.195 179 583.639 178.23C584.105 177.437 584.852 176.807 585.879 176.34C586.929 175.85 588.329 175.605 590.079 175.605H596.414V177.46H590.149C588.375 177.46 587.139 177.775 586.439 178.405C585.762 179.035 585.424 179.817 585.424 180.75C585.424 181.8 585.832 182.64 586.649 183.27C587.465 183.9 588.609 184.215 590.079 184.215C591.479 184.215 592.68 183.9 593.684 183.27C594.71 182.617 595.457 181.683 595.924 180.47L596.484 182.185C596.017 183.398 595.2 184.367 594.034 185.09C592.89 185.813 591.444 186.175 589.694 186.175ZM610.968 186.175C609.242 186.175 607.912 185.708 606.978 184.775C606.045 183.842 605.578 182.523 605.578 180.82V163.565H608.063V180.68C608.063 181.753 608.332 182.582 608.868 183.165C609.428 183.748 610.222 184.04 611.248 184.04C612.345 184.04 613.255 183.725 613.978 183.095L614.853 184.88C614.363 185.323 613.768 185.65 613.068 185.86C612.392 186.07 611.692 186.175 610.968 186.175ZM602.288 169.69V167.625H613.663V169.69H602.288ZM619.377 186V167.625H621.862V186H619.377ZM620.637 163.565C620.124 163.565 619.692 163.39 619.342 163.04C618.992 162.69 618.817 162.27 618.817 161.78C618.817 161.29 618.992 160.882 619.342 160.555C619.692 160.205 620.124 160.03 620.637 160.03C621.15 160.03 621.582 160.193 621.932 160.52C622.282 160.847 622.457 161.255 622.457 161.745C622.457 162.258 622.282 162.69 621.932 163.04C621.605 163.39 621.174 163.565 620.637 163.565ZM636.267 186.175C634.493 186.175 632.895 185.778 631.472 184.985C630.072 184.168 628.963 183.06 628.147 181.66C627.33 180.237 626.922 178.615 626.922 176.795C626.922 174.952 627.33 173.33 628.147 171.93C628.963 170.53 630.072 169.433 631.472 168.64C632.872 167.847 634.47 167.45 636.267 167.45C638.087 167.45 639.697 167.847 641.097 168.64C642.52 169.433 643.628 170.53 644.422 171.93C645.238 173.33 645.647 174.952 645.647 176.795C645.647 178.615 645.238 180.237 644.422 181.66C643.628 183.06 642.52 184.168 641.097 184.985C639.673 185.778 638.063 186.175 636.267 186.175ZM636.267 183.97C637.597 183.97 638.775 183.678 639.802 183.095C640.828 182.488 641.633 181.648 642.217 180.575C642.823 179.478 643.127 178.218 643.127 176.795C643.127 175.348 642.823 174.088 642.217 173.015C641.633 171.942 640.828 171.113 639.802 170.53C638.775 169.923 637.608 169.62 636.302 169.62C634.995 169.62 633.828 169.923 632.802 170.53C631.775 171.113 630.958 171.942 630.352 173.015C629.745 174.088 629.442 175.348 629.442 176.795C629.442 178.218 629.745 179.478 630.352 180.575C630.958 181.648 631.775 182.488 632.802 183.095C633.828 183.678 634.983 183.97 636.267 183.97ZM660.1 167.45C661.593 167.45 662.9 167.742 664.02 168.325C665.163 168.885 666.05 169.748 666.68 170.915C667.333 172.082 667.66 173.552 667.66 175.325V186H665.175V175.57C665.175 173.633 664.685 172.175 663.705 171.195C662.748 170.192 661.395 169.69 659.645 169.69C658.338 169.69 657.195 169.958 656.215 170.495C655.258 171.008 654.512 171.767 653.975 172.77C653.462 173.75 653.205 174.94 653.205 176.34V186H650.72V167.625H653.1V172.665L652.715 171.72C653.298 170.39 654.232 169.352 655.515 168.605C656.798 167.835 658.327 167.45 660.1 167.45ZM690.007 186.21C688.421 186.21 687.009 185.953 685.772 185.44C684.536 184.903 683.556 184.168 682.832 183.235C682.132 182.302 681.782 181.217 681.782 179.98C681.782 178.93 682.016 177.973 682.482 177.11C682.949 176.223 683.696 175.36 684.722 174.52C685.772 173.657 687.161 172.758 688.887 171.825C690.357 171.008 691.501 170.308 692.317 169.725C693.157 169.118 693.752 168.547 694.102 168.01C694.452 167.45 694.627 166.855 694.627 166.225C694.627 165.315 694.312 164.58 693.682 164.02C693.076 163.46 692.201 163.18 691.057 163.18C689.821 163.18 688.864 163.495 688.187 164.125C687.511 164.732 687.172 165.525 687.172 166.505C687.172 166.995 687.242 167.462 687.382 167.905C687.546 168.348 687.837 168.838 688.257 169.375C688.701 169.912 689.307 170.588 690.077 171.405L703.027 184.74L701.592 186.385L688.082 172.49C687.266 171.627 686.612 170.88 686.122 170.25C685.656 169.597 685.329 168.978 685.142 168.395C684.956 167.812 684.862 167.193 684.862 166.54C684.862 165.49 685.107 164.58 685.597 163.81C686.111 163.017 686.834 162.41 687.767 161.99C688.701 161.547 689.797 161.325 691.057 161.325C692.201 161.325 693.192 161.523 694.032 161.92C694.896 162.293 695.561 162.842 696.027 163.565C696.517 164.288 696.762 165.163 696.762 166.19C696.762 167.077 696.541 167.905 696.097 168.675C695.677 169.445 694.977 170.203 693.997 170.95C693.017 171.673 691.687 172.49 690.007 173.4C688.537 174.217 687.371 174.963 686.507 175.64C685.667 176.317 685.072 176.982 684.722 177.635C684.372 178.265 684.197 178.965 684.197 179.735C684.197 180.622 684.442 181.403 684.932 182.08C685.446 182.733 686.146 183.247 687.032 183.62C687.942 183.97 688.981 184.145 690.147 184.145C691.781 184.145 693.239 183.807 694.522 183.13C695.806 182.453 696.879 181.427 697.742 180.05C698.629 178.673 699.271 176.947 699.667 174.87L701.662 175.5C701.219 177.833 700.461 179.793 699.387 181.38C698.314 182.967 696.984 184.168 695.397 184.985C693.811 185.802 692.014 186.21 690.007 186.21ZM259.99 229V204.5H269.965C272.578 204.5 274.865 205.025 276.825 206.075C278.808 207.102 280.348 208.537 281.445 210.38C282.542 212.223 283.09 214.347 283.09 216.75C283.09 219.153 282.542 221.277 281.445 223.12C280.348 224.963 278.808 226.41 276.825 227.46C274.865 228.487 272.578 229 269.965 229H259.99ZM262.58 226.76H269.825C271.995 226.76 273.873 226.34 275.46 225.5C277.07 224.637 278.318 223.458 279.205 221.965C280.092 220.448 280.535 218.71 280.535 216.75C280.535 214.767 280.092 213.028 279.205 211.535C278.318 210.042 277.07 208.875 275.46 208.035C273.873 207.172 271.995 206.74 269.825 206.74H262.58V226.76ZM296.186 229.175C294.273 229.175 292.593 228.778 291.146 227.985C289.699 227.168 288.568 226.06 287.751 224.66C286.934 223.237 286.526 221.615 286.526 219.795C286.526 217.975 286.911 216.365 287.681 214.965C288.474 213.565 289.548 212.468 290.901 211.675C292.278 210.858 293.818 210.45 295.521 210.45C297.248 210.45 298.776 210.847 300.106 211.64C301.459 212.41 302.521 213.507 303.291 214.93C304.061 216.33 304.446 217.952 304.446 219.795C304.446 219.912 304.434 220.04 304.411 220.18C304.411 220.297 304.411 220.425 304.411 220.565H288.416V218.71H303.081L302.101 219.445C302.101 218.115 301.809 216.937 301.226 215.91C300.666 214.86 299.896 214.043 298.916 213.46C297.936 212.877 296.804 212.585 295.521 212.585C294.261 212.585 293.129 212.877 292.126 213.46C291.123 214.043 290.341 214.86 289.781 215.91C289.221 216.96 288.941 218.162 288.941 219.515V219.9C288.941 221.3 289.244 222.537 289.851 223.61C290.481 224.66 291.344 225.488 292.441 226.095C293.561 226.678 294.833 226.97 296.256 226.97C297.376 226.97 298.414 226.772 299.371 226.375C300.351 225.978 301.191 225.372 301.891 224.555L303.291 226.165C302.474 227.145 301.448 227.892 300.211 228.405C298.998 228.918 297.656 229.175 296.186 229.175ZM313.887 229L305.732 210.625H308.322L315.812 227.67H314.587L322.182 210.625H324.632L316.442 229H313.887ZM335.424 229.175C333.511 229.175 331.831 228.778 330.384 227.985C328.938 227.168 327.806 226.06 326.989 224.66C326.173 223.237 325.764 221.615 325.764 219.795C325.764 217.975 326.149 216.365 326.919 214.965C327.713 213.565 328.786 212.468 330.139 211.675C331.516 210.858 333.056 210.45 334.759 210.45C336.486 210.45 338.014 210.847 339.344 211.64C340.698 212.41 341.759 213.507 342.529 214.93C343.299 216.33 343.684 217.952 343.684 219.795C343.684 219.912 343.673 220.04 343.649 220.18C343.649 220.297 343.649 220.425 343.649 220.565H327.654V218.71H342.319L341.339 219.445C341.339 218.115 341.048 216.937 340.464 215.91C339.904 214.86 339.134 214.043 338.154 213.46C337.174 212.877 336.043 212.585 334.759 212.585C333.499 212.585 332.368 212.877 331.364 213.46C330.361 214.043 329.579 214.86 329.019 215.91C328.459 216.96 328.179 218.162 328.179 219.515V219.9C328.179 221.3 328.483 222.537 329.089 223.61C329.719 224.66 330.583 225.488 331.679 226.095C332.799 226.678 334.071 226.97 335.494 226.97C336.614 226.97 337.653 226.772 338.609 226.375C339.589 225.978 340.429 225.372 341.129 224.555L342.529 226.165C341.713 227.145 340.686 227.892 339.449 228.405C338.236 228.918 336.894 229.175 335.424 229.175ZM348.742 229V203.03H351.227V229H348.742ZM365.632 229.175C363.858 229.175 362.26 228.778 360.837 227.985C359.437 227.168 358.328 226.06 357.512 224.66C356.695 223.237 356.287 221.615 356.287 219.795C356.287 217.952 356.695 216.33 357.512 214.93C358.328 213.53 359.437 212.433 360.837 211.64C362.237 210.847 363.835 210.45 365.632 210.45C367.452 210.45 369.062 210.847 370.462 211.64C371.885 212.433 372.993 213.53 373.787 214.93C374.603 216.33 375.012 217.952 375.012 219.795C375.012 221.615 374.603 223.237 373.787 224.66C372.993 226.06 371.885 227.168 370.462 227.985C369.038 228.778 367.428 229.175 365.632 229.175ZM365.632 226.97C366.962 226.97 368.14 226.678 369.167 226.095C370.193 225.488 370.998 224.648 371.582 223.575C372.188 222.478 372.492 221.218 372.492 219.795C372.492 218.348 372.188 217.088 371.582 216.015C370.998 214.942 370.193 214.113 369.167 213.53C368.14 212.923 366.973 212.62 365.667 212.62C364.36 212.62 363.193 212.923 362.167 213.53C361.14 214.113 360.323 214.942 359.717 216.015C359.11 217.088 358.807 218.348 358.807 219.795C358.807 221.218 359.11 222.478 359.717 223.575C360.323 224.648 361.14 225.488 362.167 226.095C363.193 226.678 364.348 226.97 365.632 226.97ZM389.57 229.175C387.983 229.175 386.548 228.813 385.265 228.09C383.982 227.343 382.955 226.282 382.185 224.905C381.438 223.505 381.065 221.802 381.065 219.795C381.065 217.788 381.438 216.097 382.185 214.72C382.932 213.32 383.947 212.258 385.23 211.535C386.513 210.812 387.96 210.45 389.57 210.45C391.32 210.45 392.883 210.847 394.26 211.64C395.66 212.41 396.757 213.507 397.55 214.93C398.343 216.33 398.74 217.952 398.74 219.795C398.74 221.662 398.343 223.295 397.55 224.695C396.757 226.095 395.66 227.192 394.26 227.985C392.883 228.778 391.32 229.175 389.57 229.175ZM380.085 235.79V210.625H382.465V216.155L382.22 219.83L382.57 223.54V235.79H380.085ZM389.395 226.97C390.702 226.97 391.868 226.678 392.895 226.095C393.922 225.488 394.738 224.648 395.345 223.575C395.952 222.478 396.255 221.218 396.255 219.795C396.255 218.372 395.952 217.123 395.345 216.05C394.738 214.977 393.922 214.137 392.895 213.53C391.868 212.923 390.702 212.62 389.395 212.62C388.088 212.62 386.91 212.923 385.86 213.53C384.833 214.137 384.017 214.977 383.41 216.05C382.827 217.123 382.535 218.372 382.535 219.795C382.535 221.218 382.827 222.478 383.41 223.575C384.017 224.648 384.833 225.488 385.86 226.095C386.91 226.678 388.088 226.97 389.395 226.97ZM426.766 210.45C428.259 210.45 429.554 210.742 430.651 211.325C431.771 211.885 432.634 212.748 433.241 213.915C433.871 215.082 434.186 216.552 434.186 218.325V229H431.701V218.57C431.701 216.633 431.234 215.175 430.301 214.195C429.391 213.192 428.096 212.69 426.416 212.69C425.156 212.69 424.059 212.958 423.126 213.495C422.216 214.008 421.504 214.767 420.991 215.77C420.501 216.75 420.256 217.94 420.256 219.34V229H417.771V218.57C417.771 216.633 417.304 215.175 416.371 214.195C415.437 213.192 414.131 212.69 412.451 212.69C411.214 212.69 410.129 212.958 409.196 213.495C408.262 214.008 407.539 214.767 407.026 215.77C406.536 216.75 406.291 217.94 406.291 219.34V229H403.806V210.625H406.186V215.595L405.801 214.72C406.361 213.39 407.259 212.352 408.496 211.605C409.756 210.835 411.237 210.45 412.941 210.45C414.737 210.45 416.266 210.905 417.526 211.815C418.786 212.702 419.602 214.043 419.976 215.84L418.996 215.455C419.532 213.962 420.477 212.76 421.831 211.85C423.207 210.917 424.852 210.45 426.766 210.45ZM448.73 229.175C446.817 229.175 445.137 228.778 443.69 227.985C442.243 227.168 441.112 226.06 440.295 224.66C439.478 223.237 439.07 221.615 439.07 219.795C439.07 217.975 439.455 216.365 440.225 214.965C441.018 213.565 442.092 212.468 443.445 211.675C444.822 210.858 446.362 210.45 448.065 210.45C449.792 210.45 451.32 210.847 452.65 211.64C454.003 212.41 455.065 213.507 455.835 214.93C456.605 216.33 456.99 217.952 456.99 219.795C456.99 219.912 456.978 220.04 456.955 220.18C456.955 220.297 456.955 220.425 456.955 220.565H440.96V218.71H455.625L454.645 219.445C454.645 218.115 454.353 216.937 453.77 215.91C453.21 214.86 452.44 214.043 451.46 213.46C450.48 212.877 449.348 212.585 448.065 212.585C446.805 212.585 445.673 212.877 444.67 213.46C443.667 214.043 442.885 214.86 442.325 215.91C441.765 216.96 441.485 218.162 441.485 219.515V219.9C441.485 221.3 441.788 222.537 442.395 223.61C443.025 224.66 443.888 225.488 444.985 226.095C446.105 226.678 447.377 226.97 448.8 226.97C449.92 226.97 450.958 226.772 451.915 226.375C452.895 225.978 453.735 225.372 454.435 224.555L455.835 226.165C455.018 227.145 453.992 227.892 452.755 228.405C451.542 228.918 450.2 229.175 448.73 229.175ZM471.428 210.45C472.921 210.45 474.228 210.742 475.348 211.325C476.491 211.885 477.378 212.748 478.008 213.915C478.661 215.082 478.988 216.552 478.988 218.325V229H476.503V218.57C476.503 216.633 476.013 215.175 475.033 214.195C474.076 213.192 472.723 212.69 470.973 212.69C469.666 212.69 468.523 212.958 467.543 213.495C466.586 214.008 465.84 214.767 465.303 215.77C464.79 216.75 464.533 217.94 464.533 219.34V229H462.048V210.625H464.428V215.665L464.043 214.72C464.626 213.39 465.56 212.352 466.843 211.605C468.126 210.835 469.655 210.45 471.428 210.45ZM491.51 229.175C489.784 229.175 488.454 228.708 487.52 227.775C486.587 226.842 486.12 225.523 486.12 223.82V206.565H488.605V223.68C488.605 224.753 488.874 225.582 489.41 226.165C489.97 226.748 490.764 227.04 491.79 227.04C492.887 227.04 493.797 226.725 494.52 226.095L495.395 227.88C494.905 228.323 494.31 228.65 493.61 228.86C492.934 229.07 492.234 229.175 491.51 229.175ZM482.83 212.69V210.625H494.205V212.69H482.83Z" fill="#2B2B2B"/>
</svg>
