<svg width="233" height="265" viewBox="0 0 233 265" fill="none" xmlns="http://www.w3.org/2000/svg">
<path d="M22.6035 77.7881V187.211L116.5 241.423L210.5 187.151V77.8477L116.5 23.5762L22.6035 77.7881ZM232.5 196.604L232.25 196.749L116.75 263.433L116.5 263.577L116.25 263.433L0.75 196.749L0.5 196.604V68.3955L0.75 68.251L116.25 1.56738L116.5 1.42285L116.75 1.56738L229.25 66.5186L232.25 68.251L232.5 68.3955V196.604Z" fill="#3D5CF9" stroke="#3D5CF9"/>
<path d="M56.5001 76.6406L56.5284 94.624V94.625L56.5001 169.359V188.225L55.7501 187.792L37.8077 177.433L37.5577 177.289V86.7109L37.8077 86.5674L55.7501 76.208L56.4982 75.7754L56.5001 76.6406ZM158.5 178.885L175.471 169.086L175.5 120V94.9297L158.5 85.1143V178.885ZM92.5001 74.1445V122.5H139.5V74.1445L116 60.5762L92.5001 74.1445ZM194.443 177.289L194.193 177.433L176.25 187.792L171.75 190.39L161.25 196.452L158.25 198.185L153.75 200.782L149.25 203.381L140.25 208.576L139.5 209.01V141.5H92.5001V209.01L91.7501 208.576L78.2501 200.782L73.7501 198.185L73.5001 198.04V65.96L73.7501 65.8154L78.2501 63.2178L115.75 41.5674L116 41.4229L116.25 41.5674L149.25 60.6191L153.75 63.2178L158.25 65.8154L161.25 67.5479L171.75 73.6104L176.25 76.208L194.193 86.5674L194.443 86.7109V177.289Z" fill="#3D5CF9" stroke="#3D5CF9"/>
</svg>
